# xmcd
# 
# Track frame offsets:
#     150
#     17467
#     33032
#     47488
#     63608
#     80781
#     95474
#     110651
#     126737
#     141836
#     157945
#     173732
#     190053
#     205623
# 
# Disc length: 2980
# 
# Revision: 4
# Processed by: cddbd v1.5.2PL0 Copyright (c) Steve Scherf et al.
# Submitted via: fre:ac v1.0.31
# 
DISCID=b80ba20e
DTITLE=Asleep At The Wheel - The Very Best Of Asleep At The Wheel (Since 1970)
DYEAR=2001
DGENRE=Country
TTITLE0=The Letter (That Johnny Walker Read)
TTITLE1=Ain't Nobody Here But Us Chickens
TTITLE2=Get Your Kicks On Route 66
TTITLE3=Take Me Back To Tulsa
TTITLE4=My Baby Thinks She's A Train
TTITLE5=House Of Blue Lights
TTITLE6=Miles And Miles Of Texas
TTITLE7=Sugarfoot Rag
TTITLE8=Choo Choo Ch' Boogie
TTITLE9=Dance With Who Brung Ya
TTITLE10=Big Balls In Cowtown
TTITLE11=Last Meal
TTITLE12=Boogie Back To Texas
TTITLE13=Texas Me And You
EXTD=
EXTT0=
EXTT1=
EXTT2=
EXTT3=
EXTT4=
EXTT5=
EXTT6=
EXTT7=
EXTT8=
EXTT9=
EXTT10=
EXTT11=
EXTT12=
EXTT13=
PLAYORDER=
